<?xml version="1.0"?>
<svg width="26.943" height="34.09" xmlns="http://www.w3.org/2000/svg" xmlns:svg="http://www.w3.org/2000/svg">
 <g>
  <title>Layer 1</title>
  <path fill="#81b3d2" id="svg_1" d="m13.62,0.017l-0.148,-0.017l-13.472,1.412l0,24.661l13.472,8.017l13.43,-7.99l0.042,-0.026001l0,-24.661999l-13.324,-1.395zm11.398999,12.11l-11.523999,-6.793l-0.000999,-0.104l-0.087001,0.05l-0.087999,-0.056l0,0.109l-11.394,6.785l0,-8.971l11.547,-1.212l11.546999,1.212l0,8.98zm-11.613999,-5.34l11.518001,6.713l-4.479,2.639999l-7.093,-4.221l-0.013,1.415l5.904,3.513l-0.859999,0.507l-5.031002,-2.992l-0.013,1.415l3.827001,2.275l-0.782,0.523001l-3.032001,-1.787001l-0.013,1.413l1.851999,1.091l-1.799999,1.080999l-11.356001,-6.750999l11.371,-6.835zm-11.48,8.34l11.411,6.790999l0.014999,1.044001l-7.941,-4.728001l-0.015,1.416l7.979,4.796l0.017,1.076l-7.972,-4.741001l-0.013,1.415001l8.021,4.820999l0.045,0.026001l8.143,-4.872l0,-1.268l-0.011,-0.148001l0,-3.761l3.414999,-2.035999l0,10.02l-11.546999,6.872l-11.547,-6.871l0,-9.852z"/>
 </g>
</svg>