<?xml version="1.0"?>
<svg width="74.696" height="72.345" xmlns="http://www.w3.org/2000/svg" xmlns:svg="http://www.w3.org/2000/svg">
 <g>
  <title>Layer 1</title>
  <g id="svg_1">
   <path fill="#81b3d2" id="svg_2" d="m29.503,43.845001l0,0.5l0,18.062l0,1.468998l0,1.469002l15.999998,0l0,-2l0,-0.938l0,-18.062l0,-0.5l0,-2.438l-15.999998,0l0,2.438zm13.063002,18.562l-10.125,0l0,-18.062l10.125,0l0,18.062z"/>
   <path fill="#81b3d2" id="svg_3" d="m72.620003,39.439999l2.076004,-2.077999l-9.908005,-9.913002l0,-26.978997l-0.940998,0l-1.997005,0l-7.938,0l0,0l-2.938,0l0,13.162l-13.625,-13.632l-37.348999,37.362999l2.077,2.077999l7.832,-7.831999l0,37.798998l-3.938,0l0,2.938004l63.875,0l0,-2.938004l-5.058998,0l0,-37.799997l7.833,7.831999zm-18.707005,-36.031999l7.938,0l0,21.103999l-7.938,-7.939999l0,-13.164001zm7.937,65.998998l-49.003999,0l0,-40.735998l24.502,-24.501999l24.501999,24.501999l0,40.735998z"/>
   <path fill="#81b3d2" id="svg_4" d="m29.753,27.209999c0,4.280001 3.469999,7.75 7.749998,7.75s7.75,-3.469999 7.75,-7.75s-3.469997,-7.75 -7.75,-7.75s-7.749998,3.470001 -7.749998,7.75zm7.749998,-4.969c2.744999,0 4.970001,2.225 4.970001,4.969999s-2.225002,4.970001 -4.970001,4.970001c-2.744999,0 -4.970001,-2.225 -4.970001,-4.970001s2.226002,-4.969999 4.970001,-4.969999z"/>
   <rect fill="#81b3d2" id="svg_5" height="3.938" width="3" y="41.407" x="16.909"/>
   <rect fill="#81b3d2" id="svg_6" height="3.938" width="3" y="41.407" x="22.846"/>
   <rect fill="#81b3d2" id="svg_7" height="3.938" width="3" y="47.407" x="16.909"/>
   <rect fill="#81b3d2" id="svg_8" height="3.938" width="3" y="47.407" x="22.846"/>
   <rect fill="#81b3d2" id="svg_9" height="3.938" width="3" y="41.407" x="48.846"/>
   <rect fill="#81b3d2" id="svg_10" height="3.938" width="3" y="41.407" x="54.784"/>
   <rect fill="#81b3d2" id="svg_11" height="3.938" width="3" y="47.407" x="48.846"/>
   <rect fill="#81b3d2" id="svg_12" height="3.938" width="3" y="47.407" x="54.784"/>
  </g>
 </g>
</svg>