<?xml version="1.0"?>
<svg width="76.166" height="68.959" xmlns="http://www.w3.org/2000/svg" xmlns:svg="http://www.w3.org/2000/svg">
 <g>
  <title>Layer 1</title>
  <g id="svg_1">
   <path fill="#81b3d2" id="svg_2" d="m71.914001,46.042l-10.877003,0l-45.907999,0l-10.877,0c-2.338,0 -4.252,1.913002 -4.252,4.251999l0,3.453999c0,2.338001 1.914,4.252003 4.252,4.252003l0.956,0l0,1.036999c0,5.457005 4.464,9.922001 9.920999,9.922001l45.908,0c5.455997,0 9.921001,-4.464996 9.921001,-9.922001l0,-1.036999l0.956001,0c2.338997,0 4.251999,-1.914001 4.251999,-4.251999l0,-3.454002c0,-2.338997 -1.913002,-4.251999 -4.251999,-4.251999zm-3.956001,12.994999c0,3.816002 -3.104004,6.922001 -6.921001,6.922001l-45.907999,0c-3.816,0 -6.921,-3.105 -6.921,-6.922001l0,-1.036999l59.75,0l0,1.036999zm5.208,-5.288998c0,0.679001 -0.572998,1.251999 -1.251999,1.251999l-1.005005,0l-3.025993,0l-59.600001,0l-3.026002,0l-1.005,0c-0.679,0 -1.252,-0.573002 -1.252,-1.251999l0,-3.453999c0,-0.679001 0.573,-1.252003 1.252,-1.252003l3.792,0l7.085,0l45.908003,0l7.084,0l3.792999,0c0.679001,0 1.251999,0.573002 1.251999,1.252003l0,3.453999z"/>
   <polygon fill="#81b3d2" id="svg_3" points="16.162,37.857 21.635,41.857 27.112,37.857 32.591,41.857 38.069,37.857 43.548,41.857 49.027,37.857    54.505,41.857 59.986,37.856 65.473,41.856 71.842,37.212 70.074,34.788 65.473,38.144 59.986,34.144 54.505,38.143 49.027,34.143    43.548,38.143 38.069,34.143 32.591,38.143 27.112,34.143 21.636,38.143 16.163,34.142 10.686,38.143 6.093,34.789 4.323,37.211    10.686,41.857  "/>
   <path fill="#81b3d2" id="svg_4" d="m8.29,31.094l59.585999,0l3.011002,0c0.042,-0.610001 0.070999,-1.223999 0.070999,-1.844c0,-0.388 -0.015999,-0.771999 -0.033005,-1.156c-0.682999,-15.618 -15.120995,-28.094 -32.841995,-28.094c-17.719999,0 -32.159,12.476 -32.842,28.094c-0.017,0.384001 -0.033,0.769001 -0.033,1.156c0,0.620001 0.029,1.233 0.072,1.844l3.01,0zm29.793,-28.094c16.030998,0 29.150002,11.154 29.841995,25.094l-59.683995,0c0.692002,-13.94 13.81,-25.094 29.842,-25.094z"/>
   <circle fill="#81b3d2" id="svg_5" r="2" cy="15.042" cx="38.083"/>
   <circle fill="#81b3d2" id="svg_6" r="2" cy="10.083" cx="30.083"/>
   <circle fill="#81b3d2" id="svg_7" r="2" cy="10.083" cx="46.083"/>
  </g>
 </g>
</svg>