<?xml version="1.0"?>
<svg width="17.5" height="14.663" xmlns="http://www.w3.org/2000/svg" xmlns:svg="http://www.w3.org/2000/svg">
 <g>
  <title>Layer 1</title>
  <g id="W6EeEF_1_">
   <g id="svg_1">
    <path fill="#ffffff" id="svg_2" d="m11.283,0.153c1.736,-0.484 3.074,0.264 3.685,1.15c0.693999,-0.225 1.372,-0.47 2.072001,-0.69c-0.004002,0.841 -0.538,1.478 -0.883001,1.728c0.704,0.165 1.343,-0.481 1.343,-0.481c-0.174999,0.977 -1.035,1.746 -1.611,1.977c-0.239,6.592 -3.272,10.956 -10.382,10.823c-0.538,0 0.077,0 -0.46,0c-0.422,0 -4.29,-0.45 -5.047,-1.842999c2.341,0.191999 4.011,-0.412001 4.835,-1.150001c-0.989,-0.293 -2.761,-0.464 -3.07,-2.881c0.362,0.105 0.583,0.223 1.228,0.117c-1.236,-0.835999 -2.608,-1.537 -2.532,-3.685c0.294,0.319 1.1,0.523 1.381,0.461c-0.725,-0.235 -2.03,-3.281 -0.921,-4.836c1.873,1.812 3.848,3.521 7.369,3.685c0.216,-2.24 1.171,-3.74 2.993,-4.375z" clip-rule="evenodd" fill-rule="evenodd"/>
   </g>
  </g>
 </g>
</svg>