<?xml version="1.0"?>
<svg width="63" height="75.084" xmlns="http://www.w3.org/2000/svg" xmlns:svg="http://www.w3.org/2000/svg">
 <g>
  <title>Layer 1</title>
  <path fill="#81b3d2" id="svg_1" d="m60.165001,22.23l-0.103001,0l-24.304001,0c13.603001,-6.815001 14.688,-11.115 14.188,-13.52c-1.145,-3.916 -5.605,-6.938 -9.848999,-5.341c-5.484001,2.063 -7.028,10.262 -8.513,16.190001c-1.894001,-5.998001 -3.726,-13.649001 -8.011002,-17.525c-1.241999,-1.125 -3.049,-2.237 -5.675999,-2.003c-3.965,0.352 -9.652001,5.317 -7.344001,10.849c2.217,5.313001 9.539001,8.669999 14.354001,11.349999l-21.802999,0l-0.27,0c-1.559,0 -2.834,1.276001 -2.834,2.835001l0,11.184999c0,1.558998 1.275,2.834 2.835,2.834l0.27,0l0,33.062004l0,2.404999l0,0.531998l56.958,0l0,-0.531998l0,-2.404999l0,-33.062004l0.103001,0c1.560001,0 2.834999,-1.275002 2.834999,-2.834l0,-11.184999c-0.000999,-1.559 -1.276001,-2.835001 -2.835999,-2.835001zm-18.399002,-16.356999c2.07,-0.306 4.907001,1.283 5.174999,3.171c0.386002,2.723001 -3.348,5.192 -5.007999,6.343c-2.484001,1.723001 -4.852001,2.610999 -7.176998,4.006c0.871998,-3.645 2.510998,-12.854 7.009998,-13.52zm-22.533998,9.848c-2.190001,-1.467 -6.444,-4.377999 -6.342,-7.677999c0.11,-3.552 5.655002,-6.491 8.680001,-3.839c3.796999,3.331 5.625,10.972 7.01,16.357001c-3.199001,-1.519001 -6.230001,-2.753 -9.348001,-4.840001zm5.882,56.426003l-19.072001,0l0,-33.063004l19.072001,0l0,33.063004zm0,-36.063004l-22.114,0l0,-10.854l22.114,0l0,10.854zm10.001001,0l0,3l0,33.062004l-7.063,0l0,-33.062004l0,-3l0,-10.854l7.063,0l0,10.854zm22.009998,36.063004l-19.071999,0l0,-33.063004l19.072002,0l0,33.063004l-0.000004,0zm2.875,-36.063004l-21.946999,0l0,-10.854l21.946999,0l0,10.854z" clip-rule="evenodd" fill-rule="evenodd"/>
 </g>
</svg>