<?xml version="1.0"?>
<svg width="255.917" height="28.91" xmlns="http://www.w3.org/2000/svg" xmlns:svg="http://www.w3.org/2000/svg">
 <g>
  <title>Layer 1</title>
  <g id="svg_1">
   <path fill="#7d6c61" id="svg_2" d="m63.999001,14.454l-0.202,0.23c-1.353001,1.468 -3.022999,2.188 -4.521,2.217001l2.821999,-4.866001c1.814003,-3.138 0.144001,-6.104 -2.677998,-6.104c-2.304001,0 -4.089001,0.921 -5.816002,3.916l-1.467999,2.562l-1.227001,2.098l-0.153999,0.177c-2.159,2.504999 -4.261002,4.490999 -5.585999,4.490999c-0.662003,0 -1.037003,-0.460999 -0.345001,-1.640999l6.421001,-11.201l2.446999,0l0.863998,-1.44l-2.475998,0l2.821999,-4.893l-2.994999,0l-2.821999,4.895l-2.707005,0l-0.863998,1.44l2.735001,0l-6.018002,10.422999c-1.266998,2.217001 -0.374001,4.262001 2.044003,4.262001c1.738998,0 3.661999,-1.309 5.510998,-3.084c-0.004997,3.816 5.298,4.560999 8.539001,0.462999l0.661999,0c1.785,0 4.607002,-1.094 6.133003,-2.908c-0.200005,-0.404 -0.718002,-0.864 -1.121002,-1.037zm-6.392002,0.202l-0.144001,0c-0.979,0 -1.756001,0.806 -1.756001,1.785999c0,0.373001 0.115002,0.719 0.288002,1.008001l-0.028999,0.056999c-1.411003,2.419001 -4.837002,1.958 -3.052002,-1.150999l2.274002,-3.945001l1.439999,-2.447001c2.102001,-3.57 4.980999,-2.16 3.167,0.95l-2.188,3.742001z"/>
   <path fill="#7d6c61" id="svg_3" d="m105.455002,14.454l-0.202003,0.23c-2.159996,2.505001 -4.923996,4.491001 -7.024994,4.491001c-1.843002,0 -2.937004,-1.151001 -1.555,-3.57l0.287994,-0.519c1.929001,0.806 5.557007,0.431999 7.803001,-3.455001l0.431999,-0.749c1.612,-2.764 0.058006,-4.837 -2.389999,-4.837c-2.418999,0 -4.348,1.267 -5.614998,3.455l-2.905998,4.985l-0.173004,0.198c-2.159996,2.505001 -4.261002,4.491001 -5.585999,4.491001c-0.662003,0 -1.037003,-0.461 -0.346001,-1.641001l4.32,-7.571001c1.294998,-2.275 0.057999,-3.916 -1.612999,-3.916c-1.294998,0 -2.678001,0.72 -4.175003,2.274l4.779999,-8.32l-2.995003,0l-8.353996,14.492l-0.167999,0.192c-2.159004,2.504999 -4.261002,4.490999 -5.585999,4.490999c-0.662003,0 -1.037003,-0.460999 -0.345001,-1.640999l6.420998,-11.201l2.446999,0l0.863998,-1.44l-2.475998,0l2.823006,-4.893l-2.995003,0l-2.821999,4.895l-2.706001,0l-0.863998,1.44l2.735001,0l-6.018005,10.422999c-1.266998,2.217001 -0.374001,4.262001 2.044006,4.262001c1.212997,0 2.516998,-0.639 3.821999,-1.627001l-0.771004,1.338001l3.023003,0l4.548996,-7.917c4.607002,-5.788001 6.651001,-5.039 5.355003,-2.822001l-3.887001,6.767c-1.266998,2.217001 -0.374001,4.262001 2.043999,4.262001c1.782005,0 3.757004,-1.375 5.647003,-3.217001c0.143997,1.865 1.653,3.217001 4.054001,3.217001c3.396996,0 6.765999,-2.649 9.242996,-5.529001c-0.199997,-0.405001 -0.717995,-0.865001 -1.120995,-1.038zm-5.701004,-4.204c1.727997,-2.965 4.779999,-2.476 2.995003,0.634l-0.431999,0.749001c-1.439003,2.447 -3.369003,2.389999 -4.492004,1.987l1.929001,-3.37z"/>
   <path fill="#7d6c61" id="svg_4" d="m214.623993,14.454l-0.201004,0.23c-1.095001,1.295001 -2.418991,2.447001 -3.599991,3.253c0.949997,-2.849999 0.748993,-7.227 2.591995,-11.055999l-2.246002,-1.209c-1.237991,1.699 -3.944,5.615 -6.651001,8.782c0,0 0.001007,0.000999 0.001007,0.000999l-0.201004,0.229c-2.158997,2.504999 -4.261002,4.491001 -5.585999,4.491001c-0.662003,0 -1.035995,-0.461 -0.345001,-1.641001l6.391998,-11.201l-2.994003,0l-5.326996,9.3c-2.274002,2.072 -4.031006,3.224999 -4.606003,2.965001c-0.748993,-0.316 0,-1.439001 0.374008,-2.072001l5.845001,-10.193l-2.994003,0l-4.694,8.123999l-0.197998,0.227c-1.354004,1.468 -3.02301,2.188 -4.521011,2.217001l2.821014,-4.866001c1.813995,-3.138 0.144989,-6.104 -2.678009,-6.104c-2.302994,0 -4.087997,0.921 -5.815002,3.916l-1.468994,2.562l-1.225998,2.096999l-0.154999,0.178c-2.159012,2.504999 -4.924011,4.490999 -7.025009,4.490999c-1.843002,0 -2.938004,-1.150999 -1.554993,-3.57l0.287994,-0.518999c1.929001,0.806 5.557007,0.431999 7.803009,-3.455001l0.431992,-0.749c1.612,-2.763999 0.057999,-4.836999 -2.389999,-4.836999c-2.419006,0 -4.347992,1.267 -5.615005,3.454999l-2.903992,4.984001l-0.175003,0.198999c-2.475998,2.851 -4.606003,4.692001 -6.968002,5.700001l6.709,-11.459001l-1.756989,0c0,-1.238 -1.267014,-2.879 -3.138,-2.879c-1.612,0 -3.858002,1.267 -5.126007,3.455l-2.871002,4.957c-0.001999,-0.000999 -0.00499,-0.002999 -0.007004,-0.004l-0.200989,0.23c-2.159012,2.505001 -4.262009,4.491001 -5.585999,4.491001c-0.662003,0 -1.036011,-0.461 -0.346008,-1.641001l2.994995,-5.241c1.036011,-1.814 0.547012,-2.879 -0.432999,-4.059999l-1.669998,-2.016c-0.431992,-0.547 -0.431992,-1.152 0.173004,-1.728l-1.555008,-1.699c-1.69899,1.526 -1.842987,3.225 -0.776993,4.607l0.259003,0.346c-1.324005,1.872 -3.109009,4.405 -5.067001,6.709c0,0 0.000992,0.000999 0.000992,0.000999l-0.199997,0.229c-1.354004,1.467999 -3.022995,2.188001 -4.520996,2.217l2.820999,-4.866c1.813995,-3.138 0.145004,-6.104 -2.677994,-6.104c-2.303009,0 -4.087997,0.921 -5.815002,3.916l-1.469009,2.562l-1.227989,2.101l-0.152,0.174c-2.477005,2.851001 -4.607002,4.692 -6.968002,5.7l6.709,-11.459l-1.755997,0c0,-1.238 -1.267006,-2.879 -3.139008,-2.879c-1.612,0 -3.857994,1.267 -5.125,3.455l-4.203995,7.256001c-1.266998,2.216999 -0.374001,4.261999 2.043999,4.261999c0.834999,0 1.843002,-0.375 2.850998,-1.007999l-0.834999,1.41c-4.030998,1.237999 -6.565002,2.879 -6.565002,5.125c0,2.879999 4.405006,3.483999 6.565002,-0.201l2.275002,-3.945c2.395996,-0.747 4.742996,-2.156 7.18,-4.482c-0.022003,3.832001 5.292999,4.585001 8.539001,0.48l0.662003,0c1.784988,0 4.606995,-1.094 6.132996,-2.907999c0,0 -0.001007,-0.001 -0.001007,-0.001c1.439011,-1.67 2.562012,-3.167 4.951004,-6.419l0.403,0.488999c0.374008,0.490001 0.518997,1.094002 0.173004,1.699l-3.167007,5.5c-1.26799,2.216999 -0.375,4.261999 2.044006,4.261999c1.518005,0 3.175995,-0.997 4.802002,-2.429998c-0.048996,1.390999 0.878998,2.429998 2.597,2.429998c0.834991,0 1.843002,-0.375 2.850998,-1.007999l-0.835007,1.41c-4.030991,1.238001 -6.563995,2.879 -6.563995,5.125c0,2.880001 4.404999,3.484001 6.563995,-0.201l2.274002,-3.945c2.440002,-0.761 4.830002,-2.213999 7.315002,-4.617001c0.134003,1.875 1.647003,3.236 4.057007,3.236c2.437988,0 4.858994,-1.366999 6.947998,-3.200998c-0.118011,3.919998 5.265991,4.720999 8.541,0.58l0.662003,0c0.937988,0 2.15799,-0.308001 3.328995,-0.856001c-0.805008,2.080999 -0.063004,3.478001 1.649994,3.478001c1.641006,0 3.483002,-1.498001 4.923004,-2.880001c-0.287994,1.612001 0.662003,2.880001 2.561996,2.880001c2.477005,0 5.327011,-2.649 7.804001,-5.529c0,0 -0.000992,-0.001 -0.000992,-0.001c1.697998,-1.958 3.194992,-4.059 4.261002,-5.469c-1.181,3.109 -0.548004,8.695 -3.39801,8.695c-1.007996,0 -1.409988,-1.094 -1.409988,-1.094l-1.872009,0.979c0,0 0.546997,2.42 3.281998,2.42c0.28801,0 0.548004,-0.028999 0.835007,-0.059c0.028992,0 0.057999,-0.028 0.08699,-0.028c3.052002,-0.403 6.075012,-2.821001 8.321014,-5.442c-0.173996,-0.460001 -0.693008,-0.921 -1.124008,-1.036zm-42.982986,-4.204c1.727997,-2.965 4.779007,-2.476 2.994003,0.634l-0.432007,0.749001c-1.440002,2.447 -3.369003,2.389999 -4.492004,1.987l1.930008,-3.37zm-57.17601,15.605c-0.634003,1.123001 -1.640999,0.951 -1.640999,0.145c0,-0.777 0.720001,-1.67 2.993996,-2.562l-1.352997,2.417zm1.382004,-6.678999c-0.662003,0 -1.037003,-0.461 -0.345001,-1.640999l4.175003,-7.285001c1.612,-2.793 4.808998,-2.073 3.339996,0.634l-2.274002,3.973001c-1.814995,2.908999 -3.628998,4.318999 -4.895996,4.318999zm18.397003,-4.52l-0.145004,0c-0.978989,0 -1.755997,0.806 -1.755997,1.785999c0,0.373001 0.115005,0.719 0.287994,1.008001l-0.028992,0.056999c-1.410004,2.419001 -4.837006,1.958 -3.052002,-1.150999l2.274002,-3.945001l1.438995,-2.447001c2.102997,-3.57 4.981003,-2.16 3.167999,0.95l-2.186996,3.742001zm18.826996,11.198999c-0.634003,1.123001 -1.641998,0.951 -1.641998,0.145c0,-0.777 0.720001,-1.67 2.994995,-2.562l-1.352997,2.417zm1.382004,-6.678999c-0.662003,0 -1.035995,-0.461 -0.345993,-1.640999l4.175995,-7.285001c1.612,-2.793 4.807999,-2.073 3.339996,0.634l-2.274994,3.973001c-1.814011,2.908999 -3.629013,4.318999 -4.895004,4.318999zm29.539001,-4.52l-0.145004,0c-0.978989,0 -1.755997,0.806 -1.755997,1.785999c0,0.373001 0.115005,0.719 0.287994,1.008001l-0.028992,0.056999c-1.410004,2.419001 -4.837006,1.958 -3.052002,-1.150999l2.274002,-3.945001l1.438995,-2.447001c2.102997,-3.57 4.981003,-2.16 3.167999,0.95l-2.186996,3.742001z"/>
  </g>
  <rect fill="#7d6c61" id="svg_5" height="1.958" width="28.917" y="11.275"/>
  <rect fill="#7d6c61" id="svg_6" height="1.958" width="28.918" y="11.275" x="227"/>
 </g>
</svg>