<?xml version="1.0"?>
<svg width="459.755" height="79.804" xmlns="http://www.w3.org/2000/svg" xmlns:svg="http://www.w3.org/2000/svg">
 <g>
  <title>Layer 1</title>
  <g id="svg_1">
   <path fill="#fffcfc" id="svg_2" d="m44.467999,21.737c-3.572998,-2.977999 -8.139,-4.962999 -12.902998,-4.962999c-3.573,0 -8.338001,2.084 -8.338001,6.253c0,4.368 5.261002,6.055 8.636002,7.146l4.962999,1.489c10.422001,3.076998 18.461998,8.337 18.461998,20.447001c0,7.445 -1.786999,15.087997 -7.741997,20.150002c-5.856003,4.962997 -13.698002,7.046997 -21.241001,7.046997c-9.43,0 -18.661,-3.176003 -26.304,-8.537003l8.338,-15.681995c4.864,4.267998 10.620999,7.741997 17.271001,7.741997c4.566,0 9.43,-2.282997 9.43,-7.543999c0,-5.459999 -7.643002,-7.345001 -11.812,-8.535999c-12.208,-3.475002 -20.249001,-6.650002 -20.249001,-21.143c0,-15.187001 10.819,-25.112001 25.806999,-25.112001c7.542999,0 16.775002,2.382 23.424999,6.154l-7.743,15.088999z"/>
   <path fill="#fffcfc" id="svg_3" d="m91.833,18.958l0,12.506001l21.935997,0l0,16.478001l-21.935997,0l0,12.902l23.126999,0l0,16.477997l-42.582001,0l0,-74.840999l42.582001,0l0,16.477l-23.126999,0z"/>
   <path fill="#fffcfc" id="svg_4" d="m129.417999,2.481l27.593994,0c20.844009,0 38.016006,16.377 38.016006,37.420001c0,21.042 -17.270996,37.419998 -38.016006,37.419998l-27.593994,0l0,-74.839999zm19.455002,58.364001l4.367004,0c11.612991,0 21.539993,-6.352001 21.539993,-20.943001c0,-13.4 -8.834,-20.943001 -21.341003,-20.943001l-4.565994,0l0,41.886002z"/>
   <path fill="#fffcfc" id="svg_5" d="m286.872986,38.512001c0,24.218998 -17.369995,41.292 -41.390991,41.292s-41.391006,-17.072002 -41.391006,-41.292c0.000015,-22.631001 19.852005,-38.512001 41.391006,-38.512001s41.390991,15.881 41.390991,38.512001zm-62.53299,0.098999c0,12.903 9.529007,22.333 21.141998,22.333s21.141998,-9.43 21.141998,-22.333c0,-10.323 -9.527985,-19.752001 -21.141998,-19.752001s-21.141998,9.43 -21.141998,19.752001z"/>
   <path fill="#fffcfc" id="svg_6" d="m297.239014,2.481l19.454987,0l35.634003,45.757998l0.197998,0l0,-45.757998l19.45401,0l0,74.840999l-19.45401,0l-35.634003,-45.856998l-0.197998,0l0,45.856998l-19.454987,0l0,-74.840999z"/>
   <path fill="#fffcfc" id="svg_7" d="m407.346985,64.319l-5.16098,13.002998l-20.646027,0l28.785004,-74.840999l21.240997,0l28.188995,74.840999l-20.744965,0l-4.863007,-13.002998l-26.800018,0zm13.598022,-38.711l-0.199005,0l-8.039001,23.822001l16.179016,0l-7.94101,-23.822001z"/>
  </g>
 </g>
</svg>