<?xml version="1.0"?>
<svg width="293.826" height="79.393" xmlns="http://www.w3.org/2000/svg" xmlns:svg="http://www.w3.org/2000/svg">
 <g>
  <title>Layer 1</title>
  <g id="svg_1">
   <path fill="#ffffff" id="svg_2" d="m33.418999,17.059999c7.658001,-2.589001 8.242001,-12.180999 0.693001,-12.180999c-2.079002,0 -4.559,1.459 -6.272001,4.449l-10.211998,17.651c-0.474001,0.839001 -0.948,1.532 -1.458,2.150999c-2.626,-3.609999 -1.86,-9.007 1.823,-11.377998l-1.532,-1.933001c-7.95,5.069 -5.616,19.693001 7.659,19.693001c11.342001,0.000999 16.593,-13.602001 9.298998,-18.452002zm-9.371998,15.535002c-2.261,0 -4.048,-0.511002 -5.469999,-1.313c0.657,-0.766001 1.313,-1.714001 1.896,-2.699001l6.381998,-11.049999l1.021002,0.108999c8.897997,1.861 5.360998,14.953001 -3.829,14.953001zm4.084,-17.286001l3.063,-5.251c2.771,-4.776999 6.308998,-1.969 4.413002,1.604c-1.458004,2.735001 -3.610003,3.574 -7.476002,3.647z"/>
   <path fill="#ffffff" id="svg_3" d="m65.499001,29.320999c-0.628998,2.247999 0.572998,4.076 3.145996,4.076c1.532005,0 3.428001,-0.985001 5.251007,-2.48c0.182999,1.459 1.349998,2.48 3.281998,2.48c2.019997,0 4.235001,-1.395 6.393997,-3.358c-0.419998,2.047998 0.541,3.358 2.410004,3.358c2.079002,0 4.413002,-1.896 6.236,-3.647001c-0.364998,2.042002 0.838997,3.647001 3.246002,3.647001c3.135994,0 6.746994,-3.355 9.882996,-7.001999c-0.025002,-0.050001 -0.069,-0.102001 -0.100998,-0.152002c2.097,-2.436998 3.945999,-5.025999 5.267998,-6.776999c-1.496002,3.939001 -0.693001,11.014 -4.304001,11.014c-1.276001,0 -1.786995,-1.386 -1.786995,-1.386l-2.371002,1.24c0,0 0.693001,3.063 4.156998,3.063c0.364998,0 0.693001,-0.036999 1.057999,-0.073002c0.037003,0 0.073006,-0.035999 0.109001,-0.035999c2.786003,-0.368 5.550003,-2.063997 7.943001,-4.223999c0.057999,2.494999 1.995003,4.333 5.145004,4.333c4.302994,0 8.569992,-3.355 11.707001,-7.001999c-0.255005,-0.511 -0.912003,-1.094 -1.421997,-1.313l-0.255005,0.292c-2.735001,3.171999 -6.236,5.688999 -8.898003,5.688999c-2.334,0 -3.720001,-1.459 -1.969002,-4.521999l0.365005,-0.657c2.442993,1.021 7.038994,0.546999 9.882996,-4.376001l0.546997,-0.948c2.042007,-3.500999 0.072998,-6.127 -3.026993,-6.127c-3.063004,0 -5.507004,1.605 -7.111,4.376l-3.683006,6.318001c-0.034996,-0.012001 -0.070999,-0.037001 -0.104996,-0.046001l-0.255005,0.292c-1.385994,1.641001 -3.062996,3.1 -4.557999,4.121c1.203003,-3.609999 0.948006,-9.153 3.282005,-14.004l-2.844002,-1.532c-1.568001,2.152 -4.996002,7.112 -8.424004,11.122999c0.032005,0.046001 0.074005,0.091002 0.110001,0.138l-0.134995,0.153999c-2.735001,3.172001 -5.397003,5.689001 -7.075005,5.689001c-0.837997,0 -1.311996,-0.583 -0.437996,-2.079l8.095993,-14.187l-3.792999,0l-6.746994,11.779001c-2.881004,2.625999 -5.105003,4.084 -5.835007,3.755999c-0.947998,-0.400999 0,-1.822998 0.474007,-2.625l7.403,-12.909998l-3.792999,0l-6.036003,10.445999c-0.098,-0.059999 -0.195999,-0.122999 -0.288002,-0.161999l-0.254997,0.292c-2.735001,3.171999 -5.397003,5.688999 -7.074997,5.688999c-0.838005,0 -1.312004,-0.583 -0.438004,-2.079l6.126999,-10.722l-2.152,0c0.146004,-1.605 -1.495003,-3.829999 -3.974998,-3.829999c-2.042,0 -4.887001,1.605 -6.490997,4.376l-3.846001,6.636999c-0.195,-0.152 -0.394005,-0.285999 -0.577003,-0.365l-0.254997,0.292c-2.735001,3.172001 -6.236,5.689001 -8.898003,5.689001c-2.334,0 -3.719997,-1.459002 -1.969997,-4.522001l3.902,-6.782999c2.187996,-3.756001 6.053997,-3.136 3.791996,0.802l-0.546997,0.948l3.099998,0l0.546997,-0.948c2.042,-3.501001 0.073006,-6.127001 -3.026997,-6.127001c-3.063,0 -5.507,1.605 -7.111,4.375999l-3.77,6.467001c-0.118,-0.077 -0.236,-0.146999 -0.347,-0.195l-0.255001,0.292c-2.734997,3.171999 -6.236,5.688999 -8.897999,5.688999c-2.334,0 -3.720001,-1.459 -1.970001,-4.521999l0.365002,-0.657c2.443001,1.021 7.039001,0.547001 9.882999,-4.375999l0.547001,-0.948002c2.042,-3.500998 0.073002,-6.126998 -3.027,-6.126998c-3.063,0 -5.507,1.605 -7.111,4.376l-3.974998,6.818998c-2.371002,4.048 -0.327999,7.768002 4.156998,7.768002c3.341003,0 6.657001,-2.024 9.442001,-4.635c-0.098,2.646999 1.865002,4.635 5.140999,4.635c3.097,0.005997 6.174,-1.735003 8.826,-4.070004zm58.028999,-9.563c2.188004,-3.756001 6.054001,-3.136 3.792,0.802l-0.546997,0.948c-1.823006,3.1 -4.267006,3.027 -5.689003,2.516001l2.444,-4.266001zm-54.191002,9.227001l5.288002,-9.227001c2.042,-3.538 6.089996,-2.625999 4.229996,0.802l-2.953995,5.179001c-2.297005,3.610001 -4.559006,5.323999 -6.125999,5.323999c-0.839005,0 -1.313004,-0.583 -0.438004,-2.077999zm-24.183998,-9.227001c2.188,-3.756001 6.054001,-3.136 3.792,0.802l-0.547001,0.948c-1.822998,3.1 -4.266998,3.027 -5.688999,2.516001l2.444,-4.266001z"/>
   <path fill="#ffffff" id="svg_4" d="m173.737,33.396999c4.304001,0 8.569992,-3.355 11.705994,-7.001999c-0.25499,-0.511 -0.910995,-1.094 -1.421997,-1.313l-0.25499,0.292c-2.735001,3.171999 -6.236008,5.688999 -8.89801,5.688999c-2.334,0 -3.720001,-1.459 -1.970001,-4.521999l0.365005,-0.657c2.442993,1.021 7.037994,0.546999 9.882996,-4.376001l0.546997,-0.948c2.042007,-3.500999 0.073013,-6.127 -3.026993,-6.127c-3.061996,0 -5.505997,1.605 -7.111008,4.376l-3.692993,6.336c-0.037003,-0.019001 -0.076996,-0.048 -0.113007,-0.064001l-0.255997,0.292c-2.733994,3.172001 -5.395996,5.689001 -7.07399,5.689001c-0.839005,0 -1.313004,-0.583 -0.438004,-2.079l5.470001,-9.591c1.641998,-2.881001 0.072998,-4.96 -2.042007,-4.96c-1.641998,0 -3.391998,0.912 -5.287994,2.881l6.054001,-10.54l-3.792999,0l-10.697006,18.559001c-0.147995,-0.104 -0.296997,-0.192001 -0.43399,-0.251001l-0.256012,0.292c-2.735001,3.172001 -5.396988,5.689001 -7.074997,5.689001c-0.837997,0 -1.311996,-0.583 -0.438004,-2.078999l8.133011,-14.187002l3.099991,0l1.095001,-1.823l-3.136993,0l3.57399,-6.199998l-3.792999,0l-3.57399,6.199998l-3.428009,0l-1.093994,1.823l3.464005,0l-7.623001,13.204c-1.604004,2.808001 -0.473999,5.396999 2.589005,5.396999c1.884995,0 3.940994,-1.216 5.96199,-2.974998l-1.503998,2.610001l3.830002,0l5.762009,-10.029001c5.834991,-7.33 8.423996,-6.382 6.78299,-3.573999l-4.923004,8.570999c-1.604004,2.808001 -0.475006,5.396999 2.589005,5.396999c2.304993,0 4.863998,-1.813 7.304001,-4.220999c0.112,2.438999 2.041992,4.220999 5.145996,4.220999zm3.063004,-13.639c2.188004,-3.756001 6.054001,-3.136 3.792999,0.802l-0.546997,0.948c-1.824005,3.1 -4.268005,3.027 -5.688995,2.516001l2.442993,-4.266001z"/>
   <path fill="#ffffff" id="svg_5" d="m288.756012,25.083l-0.256012,0.292c-2.733978,3.172001 -5.397003,5.688999 -7.073975,5.688999c-0.83902,0 -1.313019,-0.582998 -0.438019,-2.078999l12.837006,-22.209l-3.792999,0l-5.579987,9.628c-0.656006,-1.058001 -1.896027,-1.97 -3.46402,-1.97c-2.042999,0 -4.888,1.605 -6.492004,4.376l-3.710999,6.406c-0.079987,-0.047001 -0.161987,-0.101 -0.237,-0.133001l-0.255981,0.292002c-2.734009,3.171999 -5.395996,5.688999 -7.074005,5.688999c-0.83902,0 -1.313019,-0.583 -0.438019,-2.079l5.470001,-9.590998c1.641998,-2.881001 0.072998,-4.960001 -2.041992,-4.960001c-1.641998,0 -3.35498,0.875 -5.251984,2.844999l1.422974,-2.48l-3.792999,0l-6.061981,10.487c-0.123001,-0.080999 -0.246002,-0.153 -0.360001,-0.202999l-0.255997,0.292c-2.734009,3.172001 -5.397003,5.688999 -7.074005,5.688999c-0.839005,0 -1.313004,-0.582998 -0.438004,-2.078999l6.126007,-10.722l-2.151001,0c0.145996,-1.605 -1.49501,-3.83 -3.975006,-3.83c-2.042999,0 -4.888,1.605 -6.492004,4.375999l-3.666992,6.329l-0.206009,0.234999c-2.733994,3.172001 -5.396988,5.689001 -7.07399,5.689001c-0.839005,0 -1.313004,-0.583 -0.438004,-2.079l3.792007,-6.636999c1.312988,-2.298 0.692993,-3.647001 -0.547012,-5.142l-2.11499,-2.553c-0.547012,-0.693 -0.547012,-1.458 0.218994,-2.188l-1.968994,-2.151c-2.152008,1.933 -2.334,4.084 -0.985001,5.834999l0.328995,0.438002c-1.677994,2.370998 -3.938995,5.58 -6.419006,8.497c0.074005,0.108 0.16301,0.215 0.258011,0.321999c-3.125,3.592001 -5.781006,5.918001 -8.763,7.191l4.813004,-8.241999l-3.792007,0l-0.401001,0.657c-2.005997,3.537001 -4.304001,6.053999 -7.257996,6.053999c-2.589005,0 -3.061996,-2.588999 -0.802002,-6.455l1.057999,-1.859999c0.692001,0.108999 1.386002,0.183001 2.151001,0.183001c13.492996,0 20.020996,-18.052001 8.132996,-18.052001c-2.078995,0 -4.55899,1.459 -6.271988,4.449l-5.908005,10.174999c-2.225006,-1.167 -3.391998,-3.282 -3.391998,-5.396999c0,-1.75 0.802994,-3.501 2.442993,-4.777l-1.23999,-2.225c-2.698013,1.933001 -3.901001,4.522 -3.901001,7.075c0,3.027 1.713989,5.944 4.776993,7.549l-1.130997,1.969c-2.662003,4.594999 -2.188004,9.701 3.173004,9.701c1.603989,0 2.953995,-0.473999 4.120987,-1.203999l-0.985001,1.713997c-5.141998,1.568001 -8.313995,3.646 -8.313995,6.491001c0,3.647003 5.580002,4.413002 8.313995,-0.254997l2.918015,-4.996002c3.937988,-1.239998 7.803986,-3.938 11.96199,-8.751999c-0.05899,-0.117001 -0.14299,-0.238001 -0.235992,-0.357c1.68399,-1.979 3.113998,-3.888 5.970001,-7.775l0.509995,0.619999c0.475006,0.620001 0.656998,1.386002 0.218994,2.152l-4.011002,6.962997c-1.604996,2.808001 -0.475006,5.396999 2.589005,5.396999c1.906998,0 3.988998,-1.243999 6.03299,-3.035999c-0.043991,1.744999 1.149002,3.035999 3.311005,3.035999c1.531006,0 3.427994,-0.985001 5.251007,-2.48c0.182999,1.459 1.349991,2.48 3.281998,2.48c1.815994,0 3.791992,-1.128998 5.742004,-2.785l-1.39801,2.420002l3.82901,0l5.798004,-10.102001c5.798981,-7.257 8.388,-6.309 6.746979,-3.500999l-4.923004,8.570999c-1.604004,2.808001 -0.475006,5.396999 2.588989,5.396999c2.016022,0 4.226013,-1.388 6.381012,-3.345999c-0.201996,1.900999 1.006012,3.345999 3.294006,3.345999c1.531006,0 3.427979,-0.985001 5.251007,-2.48c0.182983,1.459 1.349976,2.48 3.281982,2.48c3.136993,0 6.747009,-3.355 9.882996,-7.001999c-0.255981,-0.51 -0.911987,-1.094 -1.422974,-1.312zm-77.963013,-14.149998c1.130997,-1.933002 2.371002,-2.771002 3.429001,-2.771002c6.018005,0 1.787003,12.253 -8.132996,12.253l-0.766006,0l5.470001,-9.481998zm-8.059006,28.590996c-0.802002,1.422001 -2.078003,1.203999 -2.078003,0.182999c0,-0.985001 0.875,-2.114998 3.792999,-3.245998l-1.714996,3.063zm39.693008,-13.784998c-2.298004,3.610001 -4.559006,5.323999 -6.126999,5.323999c-0.839005,0 -1.311996,-0.583 -0.438004,-2.079l5.28801,-9.226999c2.041992,-3.538 6.089996,-2.625999 4.229996,0.802l-2.953003,5.18zm36.700989,-0.219c-2.298004,3.756001 -4.631989,5.543001 -6.235992,5.543001c-0.83902,0 -1.312012,-0.583 -0.438019,-2.079l5.288025,-9.227001c2.041992,-3.538 6.089996,-2.625999 4.22998,0.802l0.036011,0l-2.880005,4.961z"/>
   <path fill="#ffffff" id="svg_6" d="m162.050995,61.082001l-0.255005,0.292999c-2.735001,3.172005 -5.396988,5.688004 -7.074997,5.688004c-0.839005,0 -1.311996,-0.583 -0.438004,-2.079002l5.471008,-9.591c1.640991,-2.881001 0.071991,-4.959999 -2.042999,-4.959999c-1.641006,0 -3.354004,0.875 -5.251007,2.844997l1.421997,-2.479l-3.792999,0l-6.112,10.574001c-0.164993,-0.118999 -0.330994,-0.224998 -0.483994,-0.291l-0.255005,0.293003c-1.713989,1.858997 -3.830002,2.771 -5.725998,2.807995l3.574005,-6.162998c2.296997,-3.975998 0.181992,-7.730999 -3.391998,-7.730999c-2.917007,0 -5.178009,1.167 -7.367004,4.959999l-1.860001,3.245003l-1.625999,2.781998c-0.117004,-0.076 -0.234001,-0.146 -0.343002,-0.193001l-0.254997,0.293003c-3.136002,3.608997 -5.797997,5.942997 -8.789001,7.220997l10.394005,-17.797001l-3.792,0l-6.710007,11.670002c-2.917,2.697998 -5.177994,4.193001 -5.907997,3.864998c-0.947998,-0.400002 0,-1.822998 0.473999,-2.625l7.403,-12.91l-3.792999,0l-6.051003,10.470001c-0.112999,-0.071999 -0.225998,-0.141998 -0.330994,-0.187l-0.255005,0.292999c-2.735001,3.172005 -5.396996,5.688004 -7.074997,5.688004c-0.838005,0 -1.312004,-0.583 -0.438004,-2.079002l5.470001,-9.591c1.640999,-2.881001 0.072998,-4.959999 -2.042,-4.959999c-1.640999,0 -3.354996,0.875 -5.250999,2.845001l1.421997,-2.479l-3.792999,0l-6.061996,10.486c-0.123001,-0.081001 -0.246002,-0.153 -0.360001,-0.203003l-0.254997,0.293003c-2.735001,3.172001 -5.397003,5.688 -7.075005,5.688c-0.837997,0 -1.311996,-0.583 -0.437996,-2.079002l6.126999,-10.720997l-2.152,0c0.145996,-1.605003 -1.495003,-3.830002 -3.974998,-3.830002c-2.042,0 -4.887001,1.605 -6.491005,4.376999l-3.917999,6.762001c-0.258995,-0.235001 -0.557999,-0.417 -0.831001,-0.489998l-0.254997,0.292999c-2.735001,3.172001 -6.089996,5.688 -9.847,5.688c-2.589001,0 -4.156998,-2.588997 -1.896,-6.455002l1.058002,-1.859997c0.692997,0.108997 1.385998,0.183998 2.150997,0.183998c4.048,0 8.643002,-2.079998 11.633999,-7.294998c1.056999,-1.859001 1.530998,-3.609001 1.530998,-5.105c0,-3.428001 -2.224998,-5.652 -5.031998,-5.652c-2.079002,0 -4.558998,1.459 -6.272995,4.448997l-5.908005,10.175003c-2.224998,-1.167004 -3.391998,-3.282001 -3.391998,-5.397003c0,-1.75 0.801998,-3.500999 2.443001,-4.777l-1.240002,-2.224998c-2.698997,1.934002 -3.902,4.521 -3.902,7.075001c0,3.026001 1.714001,5.944 4.777,7.549l-1.130001,1.970001c-2.661999,4.595001 -1.093998,9.699997 4.267002,9.699997c4.241001,0 7.353001,-1.889 9.967999,-4.372002c-0.825996,2.383003 0.374001,4.372002 3.058998,4.372002c1.532005,0 3.428001,-0.985001 5.250999,-2.478996c0.183006,1.459 1.350006,2.478996 3.282005,2.478996c1.816002,0 3.792,-1.128998 5.741997,-2.783997l-1.399002,2.419998l3.830002,0l5.798004,-10.102001c5.797997,-7.257999 8.388,-6.309998 6.746994,-3.501999l-4.921997,8.567997c-1.604004,2.808998 -0.473999,5.397003 2.588997,5.397003c2.041,0 4.282005,-1.425003 6.464005,-3.423004c-0.455002,2.085999 0.509003,3.423004 2.398003,3.423004c1.823997,0 3.902,-1.532005 5.615997,-3.063004l-2.079002,3.573997c-5.141998,1.531006 -8.350998,3.646004 -8.350998,6.491005c0,3.646996 5.580002,4.412994 8.314003,-0.255005l2.917,-4.995995c3.170998,-0.998001 6.296997,-2.965004 9.562996,-6.195999c-0.524002,5.296997 6.533005,6.504997 10.785995,1.125999l0.839005,0c1.384995,0 3.259995,-0.523003 4.951996,-1.455002l-2.548996,4.409996l3.830002,0l5.798004,-10.101997c5.797989,-7.257999 8.388,-6.310001 6.746994,-3.501999l-4.922989,8.570999c-1.604004,2.808998 -0.475006,5.397003 2.589996,5.397003c3.136002,0 6.746002,-3.354004 9.883011,-7.002003c-0.256012,-0.510002 -0.912018,-1.094002 -1.423019,-1.313zm-94.386993,-14.149002c1.129997,-1.932999 2.371002,-2.771 3.428001,-2.771c1.421997,0 2.078995,0.948002 2.078995,2.334c0,3.538002 -4.302994,9.919003 -10.210995,9.919003l-0.766003,0l5.470001,-9.482002zm13.354996,14.806c-2.296997,3.610001 -4.558998,5.323997 -6.126999,5.323997c-0.838005,0 -1.312004,-0.583 -0.438004,-2.078995l5.288002,-9.227005c2.042,-3.536999 6.090004,-2.625 4.230003,0.803001l-2.953003,5.179001zm28.851006,13.784004c-0.803001,1.423004 -2.079002,1.204002 -2.079002,0.183998c0,-0.985001 0.912003,-2.114998 3.829002,-3.245995l-1.75,3.061996zm25.527,-14.185001l-0.182999,0c-1.240005,0 -2.225006,1.021 -2.225006,2.262001c0,0.473995 0.146011,0.910999 0.365005,1.274998l-0.035995,0.072998c-1.787003,3.063004 -6.127007,2.479004 -3.866013,-1.458996l2.881012,-4.995998l1.822998,-3.100002c2.662994,-4.521999 6.30899,-2.735001 4.011993,1.204002l-2.770996,4.740997z"/>
   <path fill="#ffffff" id="svg_7" d="m249.957993,62.396c-0.218994,-0.583 -0.875,-1.167 -1.421997,-1.313l-0.255997,0.292999c-1.386002,1.640999 -3.063004,3.099998 -4.559006,4.120003c1.203995,-3.610001 0.947998,-9.153004 3.281998,-14.004002l-2.845001,-1.532001c-1.567001,2.152 -4.996002,7.112 -8.423996,11.123001c0.005997,0.009998 0.014999,0.018002 0.020996,0.026001c-0.014999,-0.007 -0.030991,-0.02 -0.04599,-0.026001l-0.255005,0.292999c-2.735001,3.171997 -5.397003,5.688004 -7.074997,5.688004c-0.839005,0 -1.641006,-0.839005 -1.641006,-2.553001l0,-1.568001c2.662003,0.327999 5.470001,-1.423 7.257004,-4.521999l1.020996,-1.75c3.537003,-6.054001 -2.224991,-8.060001 -6.091003,-4.521l5.397003,-9.373001l-3.792999,0l-10.815994,18.765999c-0.230011,-0.195 -0.475006,-0.363998 -0.695007,-0.459l-0.25499,0.293003c-2.735016,3.172001 -6.236008,5.688 -8.89801,5.688c-2.334,0 -3.720001,-1.459 -1.970001,-4.521999l3.902008,-6.783001c2.187988,-3.756001 6.054001,-3.136002 3.792999,0.803001l-0.546997,0.947998l3.099991,0l0.546997,-0.947998c2.042007,-3.501003 0.073013,-6.127003 -3.026993,-6.127003c-3.061996,0 -5.507004,1.605 -7.111008,4.377003l-3.731995,6.403999c-0.078995,-0.047001 -0.160995,-0.101002 -0.235001,-0.132999l-0.255997,0.292999c-2.734009,3.172001 -5.395996,5.688 -7.074005,5.688c-0.838989,0 -1.313004,-0.583 -0.438004,-2.079002l8.096008,-14.185997l-3.792999,0l-6.746002,11.778999c-2.882004,2.625 -5.106003,4.084 -5.835007,3.755997c-0.947998,-0.399994 0,-1.822998 0.474014,-2.624996l7.403,-12.91l-3.793015,0l-7.36499,12.743999c-0.820999,0.745998 -1.660004,1.412998 -2.449997,1.952c1.202988,-3.610001 0.947998,-9.153 3.281998,-14.003998l-2.845001,-1.532001c-1.568008,2.152 -10.320007,13.75 -13.749008,17.760998c0.328003,0.473999 0.876007,0.948006 1.423004,1.313004c2.151001,-2.480003 9.372009,-11.778999 10.722,-13.566002c-1.494995,3.938 -0.692993,11.014 -4.304001,11.014c-1.276001,0 -1.787003,-1.387001 -1.787003,-1.387001l-2.369995,1.240005c0,0 0.693008,3.062996 4.156998,3.062996c0.365005,0 0.693008,-0.036003 1.057999,-0.072998c0.036011,0 0.072998,-0.036003 0.109009,-0.036003c1.925995,-0.254997 3.841003,-1.141998 5.630997,-2.378998c-0.013,1.542 0.919006,2.487999 2.507996,2.487999c2.078003,0 4.412003,-1.895996 6.235001,-3.647003c-0.363998,2.043007 0.839005,3.647003 3.246002,3.647003c2.354996,0 4.979004,-1.892998 7.466995,-4.379997c0.034012,2.518997 1.975006,4.379997 5.145004,4.379997c3.078003,0 6.136002,-1.720001 8.776001,-4.031998l-2.113998,3.667999l3.828995,0l4.340012,-7.549l0,3.025997c0,3.245003 0.619995,4.887001 3.682999,4.887001c3.136993,0 6.746994,-3.353996 9.883987,-7.001999c-0.005997,-0.011002 -0.016998,-0.021999 -0.021988,-0.034c0.015991,0.012001 0.030991,0.022999 0.046997,0.034c2.151993,-2.479 4.048996,-5.142002 5.397003,-6.929001c-1.49501,3.938 -0.692001,11.014 -4.303009,11.014c-1.276001,0 -1.787003,-1.387001 -1.787003,-1.387001l-2.369995,1.239998c0,0 0.692001,3.063004 4.156998,3.063004c0.363998,0 0.692001,-0.036003 1.057999,-0.072998c0.036011,0 0.072006,-0.036003 0.109009,-0.036003c3.865005,-0.511002 7.694,-3.574005 10.537994,-6.892002zm-25.187988,-2.991001l1.093994,-1.896c4.376999,-6.091 7.367004,-4.412998 6.018005,-2.115002l-1.822998,3.136002c-1.132004,1.969002 -4.450012,3.355 -5.289001,0.875z"/>
   <path fill="#ffffff" id="svg_8" d="m249.811005,64.984001c-1.238998,0 -2.188004,0.984001 -2.188004,2.224998s0.947998,2.188004 2.188004,2.188004c1.240005,0 2.225006,-0.948006 2.225006,-2.188004s-0.985016,-2.224998 -2.225006,-2.224998z"/>
   <polygon fill="#ffffff" id="svg_9" points="249.994,63.489 253.823,63.489 265.711,42.775 261.919,42.775  "/>
  </g>
  <g id="svg_10">
   <path fill="#ffffff" id="svg_11" d="m5.75,6.9c0,0.293 -0.057,0.587 -0.169,0.879c-0.113,0.294 -0.282,0.559 -0.507,0.796c-0.226,0.237 -0.502,0.428 -0.829,0.575c-0.327,0.147 -0.694,0.22 -1.1,0.22c-0.451,0 -0.885,-0.084 -1.302,-0.253c-0.417,-0.169998 -0.772,-0.412 -1.065,-0.728c-0.249,-0.293 -0.44,-0.643 -0.575,-1.049c-0.136,-0.406 -0.203,-0.834 -0.203,-1.285c0,-0.856 0.152,-1.646 0.457,-2.368c0.304,-0.722 0.738,-1.364 1.302,-1.928c0.248,-0.248 0.529,-0.479 0.845,-0.694c0.316,-0.213 0.615,-0.394 0.897,-0.541c0.281,-0.146 0.524,-0.264 0.727,-0.355c0.203,-0.09 0.327,-0.146 0.372,-0.169l1.353,1.996c-0.249,0.09 -0.524,0.209 -0.829,0.355c-0.304,0.147 -0.592,0.327 -0.862,0.541c-0.271,0.214 -0.496,0.468 -0.677,0.761c-0.18,0.293 -0.282,0.632 -0.304,1.015c0.654,0 1.229,0.192 1.725,0.575s0.744,0.936 0.744,1.657zm7.866,0c0,0.293 -0.057,0.587 -0.169001,0.879c-0.113,0.293 -0.282,0.558 -0.506998,0.795001c-0.226002,0.237 -0.502002,0.429 -0.829001,0.575c-0.328,0.147 -0.694,0.22 -1.1,0.22c-0.450999,0 -0.884999,-0.084001 -1.302,-0.253c-0.417,-0.168999 -0.771999,-0.411 -1.065,-0.727c-0.248,-0.293 -0.44,-0.643 -0.575,-1.049c-0.135,-0.406 -0.203,-0.834 -0.203,-1.285c0,-0.856 0.151999,-1.646 0.457,-2.368c0.304,-0.722 0.738,-1.364 1.302,-1.928c0.248,-0.248 0.529,-0.479 0.846,-0.693c0.315001,-0.214 0.614,-0.394 0.896,-0.541c0.282001,-0.146 0.524,-0.265 0.728001,-0.355c0.203,-0.09 0.327,-0.146 0.372,-0.169l1.353,1.996c-0.249,0.09 -0.523999,0.209 -0.829,0.355c-0.305,0.147 -0.592,0.327 -0.863,0.541c-0.271,0.214 -0.496,0.468 -0.676001,0.761c-0.181,0.293 -0.282,0.631 -0.304999,1.015c0.653999,0 1.229,0.192 1.724999,0.575c0.496,0.382 0.744,0.935 0.744,1.656z"/>
  </g>
  <g id="svg_12">
   <path fill="#ffffff" id="svg_13" d="m278.776001,65.842003c0,-0.293999 0.057007,-0.587997 0.167999,-0.879997c0.113007,-0.294006 0.28299,-0.558006 0.507996,-0.795006c0.226013,-0.236996 0.502014,-0.428997 0.828003,-0.574997c0.328003,-0.146 0.694,-0.220001 1.100006,-0.220001c0.450989,0 0.885986,0.085003 1.303009,0.253002c0.417999,0.169998 0.771973,0.411999 1.064972,0.729c0.249023,0.292999 0.440002,0.642998 0.575012,1.047997c0.13501,0.406006 0.203003,0.834 0.203003,1.286003c0,0.854996 -0.152008,1.644997 -0.457001,2.366997c-0.304993,0.722 -0.738007,1.364006 -1.303009,1.928001c-0.247986,0.248001 -0.528992,0.479004 -0.845978,0.693001c-0.314026,0.215004 -0.613007,0.395004 -0.896027,0.541c-0.280975,0.146004 -0.52298,0.265999 -0.72699,0.355003s-0.325989,0.145996 -0.372009,0.169998l-1.352997,-1.996002c0.248016,-0.089996 0.52301,-0.209 0.828003,-0.354996s0.59201,-0.327003 0.863007,-0.541c0.269989,-0.215004 0.496002,-0.469002 0.675995,-0.762001c0.181,-0.292999 0.282013,-0.631004 0.304993,-1.014c-0.653992,0 -1.228973,-0.192001 -1.724976,-0.576004c-0.495026,-0.383003 -0.743011,-0.936005 -0.743011,-1.655998zm-7.867004,0c0,-0.293999 0.057007,-0.587997 0.170013,-0.879997c0.112976,-0.294006 0.280975,-0.558006 0.506989,-0.795006s0.502991,-0.428997 0.82901,-0.574997c0.326996,-0.146 0.692993,-0.220001 1.099976,-0.220001c0.451019,0 0.88501,0.085003 1.302002,0.253002c0.417023,0.169998 0.772003,0.411999 1.065002,0.729c0.248016,0.292999 0.438995,0.642998 0.575012,1.047997c0.135986,0.406006 0.201996,0.834 0.201996,1.286003c0,0.854996 -0.151001,1.644997 -0.455994,2.366997c-0.304016,0.722 -0.738007,1.364006 -1.302002,1.928001c-0.248016,0.248001 -0.528992,0.479004 -0.846008,0.693001s-0.613983,0.395004 -0.895996,0.541c-0.281006,0.146004 -0.523987,0.265999 -0.727997,0.355003s-0.326996,0.145996 -0.372009,0.169998l-1.354004,-1.996002c0.249023,-0.089996 0.525024,-0.209 0.82901,-0.354996c0.304993,-0.146004 0.592987,-0.327003 0.862,-0.541c0.270996,-0.215004 0.496002,-0.469002 0.677002,-0.762001s0.282013,-0.631004 0.304993,-1.014c-0.652985,0 -1.229004,-0.192001 -1.725983,-0.576004c-0.494019,-0.383003 -0.743011,-0.936005 -0.743011,-1.655998z"/>
  </g>
 </g>
</svg>