<?xml version="1.0"?>
<svg width="187.663" height="44.918" xmlns="http://www.w3.org/2000/svg" xmlns:svg="http://www.w3.org/2000/svg">
 <g>
  <title>Layer 1</title>
  <g id="svg_1">
   <path fill="#81b3d2" id="svg_2" d="m27.712,0l7.707998,0l-1.209999,44.917999l-14.525,0l-1.975,-18.545l-1.975,18.545l-14.588999,0l-1.146,-44.917999l7.645,0l0.637,37.152l0.828,0l4.778001,-37.152l7.580999,0l4.905001,37.152l0.765001,0l0.572998,-37.152z"/>
   <path fill="#81b3d2" id="svg_3" d="m59.563,37.152l0,7.765999l-20.896,0l0,-44.917999l20.896,0l0,7.7l-13.250999,0l0,10.844001l10.575001,0l0,7.699999l-10.575001,0l0,10.908001l13.250999,0z"/>
   <path fill="#81b3d2" id="svg_4" d="m80.902,37.152l0,7.765999l-18.283001,0l0,-44.917999l7.645,0l0,37.152l10.638,0z"/>
   <path fill="#81b3d2" id="svg_5" d="m97.146004,28.362l7.708,-1.796999l0,13.603998c0,2.567001 -2.166,4.749001 -4.713997,4.749001l-11.46801,0c-2.612,0 -4.713997,-2.181999 -4.713997,-4.749001l0,-35.419999c0,-2.632 2.102997,-4.749 4.713997,-4.749l11.467003,0c2.547997,0 4.713997,2.117 4.713997,4.749l0,9.112001l-7.708,1.796l0,-7.957002l-5.542999,0l0,29.452001l5.542999,0l0,-8.790001l0.001007,0z"/>
   <path fill="#81b3d2" id="svg_6" d="m125.619003,0c2.548004,0 4.714005,2.117 4.714005,4.749l0,35.419999c0,2.566998 -2.166,4.749001 -4.714005,4.749001l-11.468002,0c-2.611,0 -4.713997,-2.182003 -4.713997,-4.749001l0,-35.419999c0,-2.631 2.102997,-4.749 4.713997,-4.749l11.468002,0zm-2.994003,7.7l-5.542999,0l0,29.452001l5.542999,0l0,-29.452001z"/>
   <path fill="#81b3d2" id="svg_7" d="m155.365997,0l7.580994,0l0,44.917999l-7.644989,0l0,-22.073999l-3.057999,11.421999l-7.45401,0l-2.994003,-11.421999l0,22.073999l-7.644989,0l0,-44.917999l7.580994,0l6.81601,21.688l6.817993,-21.688z"/>
   <path fill="#81b3d2" id="svg_8" d="m187.662994,37.152l0,7.765999l-20.895996,0l0,-44.917999l20.895996,0l0,7.7l-13.251007,0l0,10.844001l10.575012,0l0,7.699999l-10.575012,0l0,10.908001l13.251007,0z"/>
  </g>
 </g>
</svg>